<?xml version="1.0" encoding="utf-8"?>
<!-- Generator: Adobe Illustrator 24.2.0, SVG Export Plug-In . SVG Version: 6.00 Build 0)  -->
<svg version="1.0" id="Layer_1" xmlns="http://www.w3.org/2000/svg" xmlns:xlink="http://www.w3.org/1999/xlink" x="0px" y="0px"
	 viewBox="0 0 117 29" enable-background="new 0 0 117 29" xml:space="preserve">
<g>
	<g>
		<path fill="#089ED1" d="M24.842,4.338H0.47V1.63h24.372V4.338z M76.18,22.396c-1.84,1.427-4.145,2.279-6.647,2.279
			c-5.991,0-10.865-4.874-10.865-10.865c0-5.991,4.874-10.866,10.865-10.866c5.991,0,10.865,4.874,10.865,10.866
			c0,2.502-0.853,4.808-2.279,6.646l4.449,4.431l1.892-1.892l-2.923-2.923c0.979-1.873,1.536-4.002,1.536-6.263
			c0-7.478-6.062-13.54-13.54-13.54c-7.478,0-13.54,6.062-13.54,13.54c0,7.477,6.062,13.54,13.54,13.54
			c2.259,0,4.388-0.557,6.263-1.537l2.922,2.924l1.892-1.892L76.18,22.396z M0.47,7.046v2.708h8.124v16.247h2.708V7.046H0.47z
			 M14.01,7.046v18.955h2.708V9.753h8.124V7.046H14.01z M69.534,8.677c-2.835,0-5.133,2.299-5.133,5.133
			c0,2.835,2.298,5.133,5.133,5.133c2.835,0,5.133-2.298,5.133-5.133C74.666,10.976,72.368,8.677,69.534,8.677 M69.534,6.003
			c4.305,0,7.808,3.502,7.808,7.808c0,4.305-3.502,7.808-7.808,7.808c-4.306,0-7.808-3.503-7.808-7.808
			C61.726,9.505,65.228,6.003,69.534,6.003"/>
		<path fill="#FFFFFF" d="M108.028,25.988L98.717,1.627h8.671l9.312,24.361H108.028z M86.924,25.988h8.672l4.17-10.911h-8.671
			L86.924,25.988z"/>
	</g>
	<path fill="#FFFFFF" d="M45.809,25.988L36.498,1.627h8.671l9.312,24.361H45.809z M24.705,25.988h8.672l4.17-10.911h-8.671
		L24.705,25.988z"/>
</g>
</svg>
